<?xml version="1.0" encoding="UTF-8" standalone="no"?>
<!-- Created with Inkscape (http://www.inkscape.org/) -->

<svg
   xmlns:dc="http://purl.org/dc/elements/1.1/"
   xmlns:cc="http://creativecommons.org/ns#"
   xmlns:rdf="http://www.w3.org/1999/02/22-rdf-syntax-ns#"
   xmlns:svg="http://www.w3.org/2000/svg"
   xmlns="http://www.w3.org/2000/svg"
   xmlns:sodipodi="http://sodipodi.sourceforge.net/DTD/sodipodi-0.dtd"
   xmlns:inkscape="http://www.inkscape.org/namespaces/inkscape"
   width="744.09448819"
   height="1052.3622047"
   id="svg2"
   version="1.1"
   inkscape:version="0.48.4 r9939"
   sodipodi:docname="pxd logo.svg">
  <defs
     id="defs4" />
  <sodipodi:namedview
     id="base"
     pagecolor="#ffffff"
     bordercolor="#666666"
     borderopacity="1.0"
     inkscape:pageopacity="0.0"
     inkscape:pageshadow="2"
     inkscape:zoom="0.35"
     inkscape:cx="-70.714286"
     inkscape:cy="520"
     inkscape:document-units="px"
     inkscape:current-layer="layer1"
     showgrid="false"
     inkscape:window-width="1366"
     inkscape:window-height="705"
     inkscape:window-x="-8"
     inkscape:window-y="-8"
     inkscape:window-maximized="1" />
  <metadata
     id="metadata7">
    <rdf:RDF>
      <cc:Work
         rdf:about="">
        <dc:format>image/svg+xml</dc:format>
        <dc:type
           rdf:resource="http://purl.org/dc/dcmitype/StillImage" />
        <dc:title />
      </cc:Work>
    </rdf:RDF>
  </metadata>
  <g
     inkscape:label="Layer 1"
     inkscape:groupmode="layer"
     id="layer1">
    <path
       sodipodi:type="inkscape:offset"
       inkscape:radius="52.137966"
       inkscape:original="M -911.4375 94.34375 L -1117.5625 213.34375 L -1117.5625 451.40625 L -911.4375 570.40625 L -705.3125 451.40625 L -705.3125 213.34375 L -911.4375 94.34375 z "
       style="fill:#999999;stroke:#ffffff;stroke-width:24.60099983;stroke-linecap:round;stroke-linejoin:round;stroke-miterlimit:4;stroke-opacity:1;stroke-dasharray:none"
       id="path2995"
       d="M -910.21875,42.21875 A 52.14318,52.14318 0 0 0 -937.5,49.1875 l -206.125,119 a 52.14318,52.14318 0 0 0 -26.0625,45.15625 l 0,238.0625 a 52.14318,52.14318 0 0 0 26.0625,45.15625 l 206.125,119 a 52.14318,52.14318 0 0 0 52.125,0 l 206.125,-119 a 52.14318,52.14318 0 0 0 26.0625,-45.15625 l 0,-238.0625 A 52.14318,52.14318 0 0 0 -679.25,168.1875 l -206.125,-119 a 52.14318,52.14318 0 0 0 -24.84375,-6.96875 z"
       transform="matrix(0.59382008,0,0,0.59382008,811.32878,263.57501)" />
  </g>
</svg>
